<svg width="48" height="22" fill="none" xmlns="http://www.w3.org/2000/svg"><path d="M7.512 15.07c1.125-.728 2.327-1.19 3.124-2.13.139-.165.37-.306.42-.475.071-.277.127-.61.01-.84-.164-.314-.616-.235-.94-.128-.605.203-1.196.447-1.767.705-.63.287-1.26.574-1.838.921-1.24.735-2.59 1.224-4.019 1.581a3.975 3.975 0 00-.504.152c-1.408.6-1.61 1.539-.545 2.452 1.095.94 2.308 1.693 3.798 2.174 1.11.358 2.105.931 3.174 1.384.61.265 1.245.504 1.89.698.157.047.51-.049.593-.163.09-.13.016-.366-.05-.536-.051-.127-.206-.227-.333-.315-1.067-.794-2.143-1.587-3.211-2.388-.255-.191-.478-.408-.816-.7.327-.152.548-.299.79-.352.336-.079.7-.087 1.05-.124 2.445-.255 4.909-.43 7.343-.773 2.32-.329 4.611-.824 6.913-1.232.808-.138 1.638-.176 2.434-.342 1.869-.39 3.785-.542 5.55-1.41 1.162-.569 2.524-.829 3.797-1.226.333-.102.678-.182.99-.31 2.167-.851 4.198-1.923 6.015-3.228 1.628-1.17 3.204-2.414 4.377-3.957.313-.41.729-.775 1.176-1.24.095-.516.212-1.147.319-1.777.04-.243.054-.49.041-.733-.02-.294-.548-.473-.816-.276a2.39 2.39 0 00-.569.562c-2.486 3.75-6.133 6.524-10.535 8.584-1.862.872-3.911 1.448-5.883 2.149-.544.194-1.11.354-1.665.528-1.222.384-2.447.738-3.755.857-.755.066-1.505.249-2.25.394-4.099.804-8.25 1.05-12.395 1.482-.642.05-1.276.019-1.913.032z" fill="#A51EFF"/></svg>