<svg width="47" height="19" fill="none" xmlns="http://www.w3.org/2000/svg"><path d="M40.681 3.779c-1.337.086-2.578.432-3.778.153-.21-.05-.48-.026-.62-.132-.223-.179-.467-.414-.51-.669-.055-.349.355-.555.679-.662a18.96 18.96 0 011.839-.488c.676-.145 1.353-.29 2.024-.356 1.433-.15 2.809-.562 4.17-1.127.163-.067.328-.135.495-.178 1.488-.358 2.21.275 1.9 1.643-.32 1.407-.844 2.735-1.754 4.01-.677.95-1.135 2.003-1.723 3.003a17.122 17.122 0 01-1.101 1.688c-.098.131-.438.264-.573.222-.15-.051-.231-.284-.28-.46-.034-.133.03-.305.08-.45.383-1.275.774-2.553 1.154-3.834.09-.305.14-.612.238-1.047-.353.072-.619.086-.844.188-.317.137-.614.347-.917.527-2.115 1.253-4.198 2.58-6.356 3.757-2.06 1.12-4.194 2.088-6.284 3.133-.732.37-1.42.835-2.159 1.176-1.733.8-3.362 1.822-5.296 2.177-1.272.237-2.52.84-3.78 1.28-.327.117-.652.258-.98.341-2.246.609-4.516.96-6.752.995-2.005.032-4.012-.028-5.874-.567-.495-.143-1.047-.188-1.683-.294-.384-.358-.854-.795-1.315-1.237a3.377 3.377 0 01-.47-.563c-.16-.248.157-.707.49-.709a2.39 2.39 0 01.791.112c4.232 1.528 8.814 1.581 13.577.61 2.014-.41 4.003-1.169 6.004-1.782.552-.168 1.102-.377 1.652-.569 1.209-.42 2.404-.866 3.525-1.55.645-.398 1.356-.698 2.041-1.026 3.77-1.798 7.25-4.075 10.834-6.2.546-.342 1.036-.746 1.556-1.115z" fill="#A51EFF"/></svg>