<svg width="53" height="42" fill="none" xmlns="http://www.w3.org/2000/svg"><path d="M49.74 36.323c-1.886-1.942-5.689-5.071-7.002-5.764-.369-.18-.861-.203-1.182-.024-.458.254-.487.418-.136 1.051.226.408 1.08 1.354 1.916 2.104 1.964 1.812 2.016 1.96.382 1.12-3.866-1.999-7.58-3.401-13.673-5.201-3.394-.988-4.166-1.3-3.885-1.604.191-.195 1.985-1.337 3.974-2.559 3.9-2.37 4.214-2.722 3.374-3.588-.244-.278-2.659-1.336-5.365-2.38-2.707-1.044-5.735-2.235-6.674-2.632l-1.77-.705 1.688-2.416c1.643-2.332 2.03-3.256 1.615-4.003-.477-.86-18.221-8.271-21.131-8.818C.563.653-.102 1.021.3 1.746c.313.565 1.159.955 9.203 4.276 5.478 2.26 10.867 4.953 10.564 5.27-.741.824-2.88 4.91-2.848 5.455.058.915.488 1.15 5.594 3.171 4.904 1.927 6.76 2.732 6.898 2.981.087.159-1.464 1.197-6.468 4.386-1.977 1.244-2.26 1.49-2.184 1.951.156.713.988 1.08 4.197 1.786 3.598.816 9.787 3.006 14.819 5.217 2.2.94 4.021 1.794 4.06 1.862.037.068-.614.192-1.418.253-2.017.201-3.044.564-3.325 1.193-.455.962.385 1.503 2.718 1.659 2.088.144 8.723-.428 9.41-.81.459-.254.703-1.218.43-1.658-.137-.19-1.138-1.293-2.21-2.415z" fill="#A51EFF"/></svg>