<svg width="43" height="29" fill="none" xmlns="http://www.w3.org/2000/svg"><path d="M36.195 22.747c-.947-.948-2.026-1.652-2.608-2.738-.1-.191-.297-.377-.31-.553-.013-.285.003-.623.166-.824.226-.272.651-.1.945.073.55.325 1.076.688 1.58 1.06.556.412 1.112.825 1.604 1.286 1.057.979 2.275 1.74 3.597 2.39.16.079.318.158.462.255 1.25.881 1.25 1.842.017 2.511-1.267.689-2.611 1.17-4.169 1.328-1.16.117-2.254.469-3.394.687a17.12 17.12 0 01-1.995.286c-.163.013-.487-.155-.544-.284-.061-.146.06-.361.16-.514.078-.113.25-.178.392-.238 1.21-.552 2.429-1.102 3.641-1.66.29-.134.553-.3.945-.513-.288-.218-.473-.408-.7-.51-.311-.148-.664-.233-1-.342-2.337-.763-4.709-1.451-7.017-2.297-2.2-.809-4.335-1.774-6.5-2.656-.761-.305-1.565-.515-2.308-.846-1.745-.774-3.587-1.324-5.13-2.543-1.017-.8-2.294-1.34-3.455-1.996-.305-.169-.625-.32-.904-.51-1.939-1.288-3.7-2.762-5.202-4.419-1.347-1.485-2.626-3.033-3.45-4.788-.22-.467-.55-.91-.89-1.458.016-.526.035-1.167.062-1.805C.201.883.24.639.304.404.384.12.938.056 1.159.305c.181.204.344.432.439.668C3.24 5.161 6.225 8.64 10.097 11.578c1.637 1.243 3.52 2.237 5.3 3.336.491.304 1.011.58 1.518.866 1.113.631 2.237 1.235 3.49 1.626.725.222 1.42.559 2.118.858 3.838 1.646 7.845 2.758 11.808 4.05.616.184 1.243.286 1.864.433z" fill="#A51EFF"/></svg>