<svg width="40" height="32" fill="none" xmlns="http://www.w3.org/2000/svg"><path d="M1.805 27.406c1.438-1.48 4.337-3.866 5.338-4.393.281-.138.656-.155.901-.02.35.194.371.32.103.802-.172.311-.823 1.032-1.46 1.604-1.497 1.38-1.537 1.494-.29.854 2.946-1.524 5.777-2.593 10.421-3.965 2.588-.753 3.177-.99 2.963-1.222-.146-.149-1.514-1.02-3.03-1.951-2.973-1.807-3.212-2.075-2.572-2.735.186-.213 2.027-1.019 4.09-1.815 2.063-.796 4.371-1.704 5.087-2.006l1.35-.538-1.287-1.841c-1.253-1.778-1.547-2.482-1.231-3.052.363-.655 13.89-6.305 16.108-6.722.997-.191 1.504.09 1.198.642-.24.431-.884.728-7.016 3.26-4.176 1.722-8.284 3.775-8.053 4.016.565.63 2.196 3.744 2.171 4.16-.044.697-.372.876-4.264 2.417-3.739 1.468-5.153 2.082-5.258 2.272-.067.121 1.116.912 4.93 3.344 1.507.948 1.723 1.135 1.665 1.487-.119.543-.753.823-3.2 1.361-2.742.622-7.46 2.292-11.296 3.977-1.677.717-3.066 1.368-3.094 1.42-.029.051.467.146 1.08.193 1.537.153 2.32.43 2.534.909.347.733-.293 1.146-2.072 1.264-1.591.11-6.649-.326-7.173-.616-.35-.194-.535-.93-.327-1.265.104-.145.867-.985 1.684-1.84z" fill="#A51EFF"/></svg>