<svg width="22" height="26" fill="none" xmlns="http://www.w3.org/2000/svg"><path d="M2.986 21.493V3.278H1.883C1.158 3.278.59 3.845.59 4.57v20.138c0 .725.567 1.292 1.292 1.292h15.033c.724 0 1.292-.567 1.292-1.292v-1.04H5.16a2.179 2.179 0 01-2.175-2.175zM17.042 5.515h4.475L16.002 0v4.475c0 .567.473 1.04 1.04 1.04z" fill="#A51EFF"/><path d="M15.12 4.475V.032H5.161c-.725 0-1.292.567-1.292 1.292v20.17c0 .724.567 1.291 1.292 1.291h15.033c.725 0 1.292-.567 1.292-1.292V6.398h-4.444a1.91 1.91 0 01-1.922-1.923zM8.565 6.303h4.002a.43.43 0 01.441.441.43.43 0 01-.44.441H8.564a.43.43 0 01-.441-.44c-.032-.253.189-.442.44-.442zm8.288 12.449H8.565a.43.43 0 01-.441-.442.43.43 0 01.44-.44h8.29a.43.43 0 01.44.44c0 .22-.22.442-.44.442zm0-3.845H8.565a.43.43 0 01-.441-.441.43.43 0 01.44-.442h8.29a.43.43 0 01.44.442.45.45 0 01-.44.44zm.442-4.318a.43.43 0 01-.442.441H8.565a.43.43 0 01-.441-.44.43.43 0 01.44-.442h8.29c.22 0 .44.189.44.441z" fill="#A51EFF"/></svg>