<svg width="25" height="18" fill="none" xmlns="http://www.w3.org/2000/svg"><path d="M.055 1.904A2.418 2.418 0 000 2.421V15.33c0 .178.02.35.055.516l7.495-6.97L.055 1.903zM.93 17.237c.41.322.928.514 1.49.514h19.364c.563 0 1.08-.192 1.491-.514l-7.805-7.26-.72.67a3.881 3.881 0 01-5.295 0l-.72-.67-7.805 7.26zm23.22-1.391c.036-.166.055-.338.055-.516V2.42c0-.177-.019-.35-.055-.516l-7.495 6.971 7.495 6.971z" fill="#A51EFF"/><path d="M23.275.513A2.407 2.407 0 0021.785 0H2.42A2.41 2.41 0 00.93.513L9.278 8.28l.012.01 1.264 1.176c.877.815 2.22.815 3.096 0l1.265-1.176.011-.01L23.275.512z" fill="#A51EFF"/></svg>