<svg width="21" height="21" fill="none" xmlns="http://www.w3.org/2000/svg"><path d="M11.1 3.786l-.386.003a.62.62 0 00.006 1.237h.007l.364-.003.344.02.341.044.337.068.331.091.325.114.316.135.306.157.293.178v.001l.281.198.266.218.251.234v.001l.232.25.215.266.196.28.176.292.155.304.134.314.113.324.089.328.068.336.043.339.02.34-.004.363a.615.615 0 00.612.625h.007a.62.62 0 00.618-.612l.004-.385v-.042l-.023-.383-.004-.042-.05-.382-.007-.042-.074-.377-.01-.042-.1-.37-.013-.041-.127-.362-.015-.04-.15-.354-.02-.038-.174-.343-.02-.037-.198-.33-.024-.035-.22-.315-.025-.034-.242-.3-.027-.03-.263-.283-.03-.03-.282-.265-.031-.028-.3-.244-.035-.026-.315-.223-.037-.023-.33-.201-.037-.022-.344-.177-.04-.018-.354-.153-.04-.015-.366-.128-.04-.013-.373-.102-.042-.01-.38-.076-.042-.008-.384-.049-.043-.004-.385-.022-.043-.001zM10.406 0l-.707.007a.62.62 0 00.007 1.239h.006l.684-.008v.001l.662.04.657.084.65.13.64.175v.001l.625.218.608.262.589.304.567.344.54.382.514.418.484.454.447.482.415.513.377.539.34.564.298.586.259.606.216.622.173.635.129.646.083.653.039.657-.008.68a.622.622 0 00.613.626h.007c.34 0 .616-.274.619-.613l.008-.701-.002-.043-.04-.7-.005-.042-.09-.696-.005-.042-.137-.688-.01-.041-.185-.677-.012-.04-.23-.663-.016-.04-.275-.644-.017-.04-.32-.623-.02-.037-.361-.601-.024-.036-.402-.575-.026-.034-.44-.545-.027-.033-.479-.514-.03-.03-.514-.483-.033-.028-.546-.445-.034-.027-.577-.406-.036-.024-.603-.366-.038-.02-.627-.324-.039-.019-.648-.279-.04-.015-.666-.234-.04-.012-.681-.187-.042-.01-.692-.139-.042-.007-.7-.09-.043-.004-.704-.042L10.405 0zM3.824 1.646a2.46 2.46 0 00-1.738.718C1.002 3.442.965 3.474.965 3.474c-2.497 2.496.179 8.106 4.29 12.217 3.013 3.013 6.831 5.255 9.639 5.255 1.022 0 1.911-.298 2.577-.964l1.11-1.123c.959-.958.96-2.513.001-3.47l-2.418-2.415a2.44 2.44 0 00-1.731-.717c-.628 0-1.256.24-1.735.72l-1.324 1.322a43.477 43.477 0 01-2.452-2.275 43.062 43.062 0 01-2.274-2.452L7.97 8.248a2.456 2.456 0 000-3.473L5.553 2.362a2.436 2.436 0 00-1.729-.716z" fill="#A51EFF"/></svg>