<svg width="22" height="18" fill="none" xmlns="http://www.w3.org/2000/svg"><path fill-rule="evenodd" clip-rule="evenodd" d="M1.462 7.407c5.71-2.428 9.518-4.029 11.424-4.802C18.326.396 19.456.013 20.193 0c.162-.003.524.037.759.222.198.157.252.37.278.518.027.149.06.488.033.753-.295 3.023-1.57 10.359-2.219 13.745-.275 1.432-.815 1.913-1.339 1.96-1.137.102-2-.734-3.103-1.439-1.724-1.103-2.698-1.79-4.371-2.866-1.934-1.244-.68-1.927.422-3.045.288-.292 5.3-4.741 5.397-5.145.012-.05.024-.239-.091-.338-.114-.1-.284-.065-.405-.038-.173.038-2.928 1.815-8.263 5.33-.782.524-1.49.779-2.124.766-.7-.015-2.045-.386-3.045-.704C.895 9.33-.08 9.124.005 8.463c.044-.344.53-.696 1.457-1.056z" fill="#fff"/></svg>