<svg width="25" height="25" fill="none" xmlns="http://www.w3.org/2000/svg"><path d="M12.503 0c-3.412 0-6.51 1.374-8.768 3.598-.025.02-.05.042-.073.064a.9.9 0 00-.063.073A12.465 12.465 0 000 12.503a12.45 12.45 0 003.604 8.77.734.734 0 00.124.122A12.463 12.463 0 0012.503 25c3.42 0 6.52-1.38 8.778-3.61.02-.017.04-.034.057-.052a.553.553 0 00.039-.044 12.454 12.454 0 003.622-8.791v-.026H25v-.004a12.473 12.473 0 00-3.608-8.751l-.002-.002a.926.926 0 00-.108-.11A12.453 12.453 0 0012.502 0zm.778 1.59a10.89 10.89 0 016.384 2.64l-.635.631h.001a.782.782 0 00.554 1.338.78.78 0 00.554-.23l.631-.634a10.898 10.898 0 012.64 6.385h-.89v-.001a.781.781 0 100 1.563h.89a10.885 10.885 0 01-2.639 6.385l-.632-.637v.001a.78.78 0 00-1.108 0 .78.78 0 000 1.108l.637.633a10.894 10.894 0 01-6.386 2.638v-.89a.784.784 0 00-1.334-.556.784.784 0 00-.23.557v.887a10.9 10.9 0 01-6.382-2.636l.633-.633a.78.78 0 000-1.108.78.78 0 00-1.1 0l-.638.637a10.886 10.886 0 01-2.641-6.387h.895a.78.78 0 000-1.562h-.894a10.89 10.89 0 012.641-6.385l.636.636A.782.782 0 005.97 4.86l-.632-.631a10.897 10.897 0 016.38-2.64v.89a.78.78 0 101.563 0v-.89zm-.778 4.396a.78.78 0 00-.784.785v5.732a.78.78 0 00.243.565l2.826 2.693a.783.783 0 101.076-1.135l-2.583-2.458V6.77a.788.788 0 00-.226-.553.786.786 0 00-.552-.23z" fill="#A51EFF"/></svg>